<svg width="44" height="44" viewBox="0 0 44 44" fill="none" xmlns="http://www.w3.org/2000/svg">
<path d="M21.8779 43.0839C9.95679 43.0839 0.261719 33.4221 0.261719 21.542C0.261719 9.66177 9.97144 0 21.8779 0C33.7844 0 43.4941 9.66177 43.4941 21.542C43.4941 33.4221 33.799 43.0839 21.8779 43.0839ZM21.8779 1.75138C10.9234 1.75138 2.01913 10.625 2.01913 21.542C2.01913 32.4589 10.9234 41.3325 21.8779 41.3325C32.8324 41.3325 41.7367 32.4589 41.7367 21.542C41.7367 10.625 32.8324 1.75138 21.8779 1.75138Z" fill="white"/>
<path d="M27.4605 22.9501L28.1264 18.6087H23.9609V15.7914C23.9609 14.6037 24.5428 13.4459 26.4085 13.4459H28.3024V9.74987C28.3024 9.74987 26.5836 9.45654 24.9404 9.45654C21.5097 9.45654 19.2675 11.5357 19.2675 15.2999V18.6087H15.4541V22.9501H19.2675V33.4452C20.0438 33.5669 20.8284 33.6279 21.6142 33.6277C22.4126 33.6277 23.1963 33.5652 23.9609 33.4452V22.9501H27.4605Z" fill="white"/>
</svg>
