<svg width="156" height="51" viewBox="0 0 156 51" fill="none" xmlns="http://www.w3.org/2000/svg">
<path d="M38.9982 25.4839H24.5229C24.0216 25.4833 23.5405 25.681 23.185 26.0337C22.8295 26.3864 22.6285 26.8654 22.6261 27.3657V31.0295C22.6285 31.5298 22.8295 32.0088 23.185 32.3615C23.5405 32.7142 24.0216 32.9119 24.5229 32.9113H30.7214V38.9166C29.9476 39.5306 29.0636 39.9917 28.1167 40.2752C26.8779 40.6896 25.2013 40.9002 23.1252 40.9002C20.2461 40.9002 18.0226 39.9084 16.3323 37.8636C14.642 35.8188 13.7798 33.1083 13.7798 29.8V20.2893C13.7798 17.0399 14.6102 14.3565 16.2438 12.3117C17.8774 10.2669 19.9579 9.2819 22.6238 9.2819C25.1196 9.2819 27.0413 9.93633 28.3164 11.2316C29.0651 11.9924 29.8002 14.0848 30.3311 16.9719C30.5195 17.9887 31.3317 17.8392 32.3187 17.8392H38.1655C39.7537 17.8392 39.9511 17.7509 40.0691 17.4022L40.1258 17.2255V17.1418C40.0351 10.8942 37.6119 7.35034 35.4996 5.43236C32.4571 2.66975 28.0396 1.26807 22.372 1.26807C16.9018 1.26807 12.3618 3.06376 8.87908 6.60534C5.39637 10.1469 3.63574 14.7709 3.63574 20.3618V29.8181C3.63574 35.4361 5.47125 40.0714 9.08101 43.5994C12.6908 47.1274 17.4191 48.9141 23.1162 48.9141C27.5654 48.9141 31.309 48.194 34.2336 46.7764C36.5773 45.6442 38.4582 44.358 39.8218 42.9563C40.4798 42.277 40.87 41.0157 40.87 40.1801V27.3657C40.8677 26.8697 40.6701 26.3945 40.32 26.0425C39.9698 25.6905 39.4951 25.4899 38.9982 25.4839Z" fill="white"/>
<path d="M68.7088 1.24756H51.2386C49.4131 1.24752 47.6618 1.96831 46.367 3.25255C45.0722 4.53678 44.339 6.28015 44.3276 8.102V17.8119H52.6929V11.6979C52.6929 10.919 53.1989 10.6699 53.8274 11.1409L70.2108 20.7376C70.3546 20.8287 70.4731 20.9547 70.5552 21.1037C70.6372 21.2527 70.6802 21.42 70.6802 21.5901C70.6802 21.7602 70.6372 21.9275 70.5552 22.0765C70.4731 22.2256 70.3546 22.3515 70.2108 22.4427L53.8274 33.3663C53.2011 33.8373 52.6929 33.5927 52.6929 32.8093V25.477H44.3276V42.0685C44.339 43.8902 45.0722 45.6333 46.3671 46.9172C47.662 48.2011 49.4133 48.9213 51.2386 48.9207H68.7088C70.5342 48.9219 72.2859 48.2019 73.5809 46.9178C74.8759 45.6338 75.609 43.8904 75.6198 42.0685V8.102C75.609 6.27996 74.876 4.53625 73.5811 3.25189C72.2861 1.96752 70.5345 1.24693 68.7088 1.24756ZM66.3447 6.88827H53.7502C52.9902 6.88827 52.3685 6.50784 52.3685 6.04363C52.3685 5.57942 52.9902 5.19673 53.7502 5.19673H66.3447C67.1047 5.19673 67.7264 5.57716 67.7264 6.04363C67.7264 6.51011 67.1047 6.88827 66.3447 6.88827ZM60.0463 45.8048C59.1461 45.8049 58.2825 45.4489 57.6446 44.8148C57.0068 44.1807 56.6466 43.3203 56.643 42.4218C56.646 41.5229 57.0059 40.6619 57.6438 40.0273C58.2817 39.3928 59.1457 39.0364 60.0463 39.0364C60.947 39.0364 61.8109 39.3928 62.4488 40.0273C63.0867 40.6619 63.4466 41.5229 63.4496 42.4218C63.446 43.3203 63.0858 44.1807 62.448 44.8148C61.8101 45.4489 60.9466 45.8049 60.0463 45.8048Z" fill="white"/>
<path d="M94.9168 24.7933L95.2254 21.9311H95.1029L94.2158 24.2386L91.1392 29.6166H90.2316L86.9917 24.2182L86.0842 21.9311H85.9821L86.395 24.773V31.8221C86.395 31.9423 86.3472 32.0575 86.2621 32.1424C86.177 32.2273 86.0616 32.275 85.9412 32.275H84.1647C84.0444 32.275 83.9289 32.2273 83.8438 32.1424C83.7587 32.0575 83.7109 31.9423 83.7109 31.8221V18.3035C83.7109 18.1834 83.7587 18.0682 83.8438 17.9832C83.9289 17.8983 84.0444 17.8506 84.1647 17.8506H86.032C86.1112 17.8511 86.1889 17.8722 86.2573 17.9119C86.3258 17.9517 86.3826 18.0086 86.4222 18.077L90.1522 24.4469L90.8329 26.0954H90.9168L91.5362 24.4061L95.0598 18.0861C95.0999 18.0166 95.1579 17.9591 95.2276 17.9193C95.2974 17.8795 95.3765 17.8589 95.4568 17.8596H97.2969C97.4172 17.8596 97.5326 17.9074 97.6177 17.9923C97.7028 18.0772 97.7506 18.1924 97.7506 18.3125V31.8312C97.7506 31.9513 97.7028 32.0665 97.6177 32.1514C97.5326 32.2364 97.4172 32.2841 97.2969 32.2841H95.3751C95.2548 32.2841 95.1394 32.2364 95.0543 32.1514C94.9692 32.0665 94.9214 31.9513 94.9214 31.8312L94.9168 24.7933Z" fill="white"/>
<path d="M99.7676 25.0629C99.7676 22.658 100.297 20.8072 101.356 19.5105C102.415 18.2137 103.927 17.5646 105.894 17.5631C106.823 17.5427 107.746 17.7251 108.598 18.0975C109.353 18.4429 110.012 18.9668 110.518 19.6237C111.049 20.3305 111.435 21.1356 111.652 21.9923C111.911 22.995 112.036 24.0274 112.024 25.0629C112.024 27.4647 111.495 29.3155 110.436 30.6153C109.377 31.915 107.864 32.5642 105.898 32.5627C104.962 32.5846 104.033 32.4014 103.175 32.026C102.422 31.684 101.765 31.1603 101.265 30.502C100.735 29.7944 100.35 28.9896 100.131 28.1334C99.8759 27.1301 99.7539 26.0978 99.7676 25.0629ZM102.742 25.0629C102.737 25.7368 102.799 26.4096 102.926 27.0714C103.028 27.6273 103.22 28.1628 103.495 28.6565C103.731 29.0764 104.068 29.4306 104.476 29.6868C104.906 29.9425 105.4 30.0713 105.9 30.0582C106.357 30.0766 106.811 29.9783 107.219 29.7727C107.628 29.567 107.976 29.2608 108.233 28.883C108.783 28.0995 109.059 26.8291 109.059 25.0719C109.062 24.415 109.004 23.7592 108.884 23.1132C108.784 22.5596 108.599 22.0248 108.335 21.5281C108.109 21.0969 107.775 20.7312 107.366 20.4661C106.924 20.2012 106.415 20.0691 105.9 20.0856C105.44 20.068 104.983 20.1698 104.574 20.3809C104.165 20.592 103.817 20.9053 103.566 21.2903C103.017 22.0844 102.742 23.3419 102.742 25.0629Z" fill="white"/>
<path d="M123.781 21.2088C123.78 21.5699 123.735 21.9296 123.647 22.2798C123.561 22.631 123.411 22.9634 123.205 23.2603C122.988 23.5666 122.717 23.8312 122.406 24.0416C122.044 24.2829 121.64 24.4542 121.215 24.5465V24.6711C121.618 24.7374 122.012 24.8554 122.385 25.0221C122.75 25.1809 123.078 25.412 123.35 25.7014C123.634 26.0052 123.854 26.3624 123.999 26.7521C124.162 27.222 124.239 27.7176 124.226 28.2149C124.242 28.888 124.079 29.5533 123.751 30.142C123.439 30.6789 123.003 31.1343 122.481 31.4712C121.923 31.8254 121.309 32.0827 120.666 32.232C119.983 32.3987 119.283 32.4823 118.581 32.4811H117.673C117.308 32.4811 116.915 32.4811 116.496 32.4494C116.076 32.4177 115.649 32.3973 115.216 32.3566C114.817 32.3204 114.42 32.2584 114.029 32.1709V17.9525C114.289 17.9117 114.592 17.871 114.937 17.8302C115.273 17.7895 115.636 17.7555 116.021 17.7261C116.407 17.6966 116.802 17.6785 117.208 17.6649C117.614 17.6513 118.016 17.6445 118.415 17.6445C119.075 17.6438 119.735 17.6953 120.387 17.7985C120.983 17.8884 121.561 18.0726 122.1 18.3442C122.591 18.5965 123.008 18.9738 123.307 19.438C123.635 19.9692 123.8 20.5849 123.781 21.2088ZM117.732 23.908C117.923 23.908 118.147 23.908 118.401 23.8876C118.613 23.8783 118.823 23.8579 119.032 23.8264C119.532 23.6785 119.995 23.4287 120.393 23.0928C120.579 22.9352 120.726 22.7379 120.824 22.5156C120.923 22.2933 120.969 22.0517 120.961 21.8088C120.973 21.5034 120.901 21.2005 120.754 20.9325C120.621 20.7063 120.433 20.5171 120.207 20.3822C119.969 20.2421 119.707 20.1454 119.434 20.0969C119.134 20.041 118.831 20.0129 118.526 20.0131C118.17 20.0131 117.846 20.0131 117.537 20.0358C117.302 20.0415 117.067 20.0611 116.834 20.0947V23.908H117.732ZM118.626 30.1103C118.958 30.111 119.289 30.07 119.611 29.988C119.911 29.9142 120.196 29.786 120.45 29.6098C120.692 29.4427 120.892 29.2237 121.038 28.969C121.194 28.688 121.272 28.3707 121.265 28.0496C121.285 27.6778 121.192 27.3084 120.999 26.9899C120.828 26.7338 120.594 26.5263 120.319 26.3875C120.02 26.2408 119.697 26.148 119.366 26.1135C119.015 26.0729 118.663 26.0524 118.311 26.0524H116.831V29.988C116.936 30.0225 117.045 30.043 117.156 30.0491C117.303 30.0627 117.464 30.074 117.632 30.0808L118.159 30.1012C118.336 30.108 118.49 30.1103 118.624 30.1103H118.626Z" fill="white"/>
<path d="M126.998 17.8506H128.918C129.038 17.8506 129.153 17.8983 129.239 17.9832C129.324 18.0682 129.371 18.1834 129.371 18.3035V31.8221C129.371 31.9423 129.324 32.0575 129.239 32.1424C129.153 32.2273 129.038 32.275 128.918 32.275H126.998C126.878 32.275 126.762 32.2273 126.677 32.1424C126.592 32.0575 126.544 31.9423 126.544 31.8221V18.3035C126.544 18.1834 126.592 18.0682 126.677 17.9832C126.762 17.8983 126.878 17.8506 126.998 17.8506Z" fill="white"/>
<path d="M140.832 32.275H132.593C132.473 32.275 132.358 32.2273 132.273 32.1424C132.187 32.0575 132.14 31.9423 132.14 31.8221V18.3035C132.14 18.1834 132.187 18.0682 132.273 17.9832C132.358 17.8983 132.473 17.8506 132.593 17.8506H134.513C134.633 17.8506 134.749 17.8983 134.834 17.9832C134.919 18.0682 134.967 18.1834 134.967 18.3035V29.7592H140.832C140.952 29.7592 141.067 29.807 141.153 29.8919C141.238 29.9768 141.285 30.092 141.285 30.2121V31.8221C141.285 31.9423 141.238 32.0575 141.153 32.1424C141.067 32.2273 140.952 32.275 140.832 32.275Z" fill="white"/>
<path d="M143.205 17.8506H150.864C150.985 17.8506 151.1 17.8983 151.185 17.9832C151.27 18.0682 151.318 18.1834 151.318 18.3035V19.9112C151.318 20.0313 151.27 20.1465 151.185 20.2315C151.1 20.3164 150.985 20.3641 150.864 20.3641H145.578V23.7223H150.343C150.463 23.7223 150.578 23.77 150.663 23.8549C150.749 23.9398 150.796 24.055 150.796 24.1752V25.7829C150.796 25.903 150.749 26.0182 150.663 26.1031C150.578 26.1881 150.463 26.2358 150.343 26.2358H145.578V29.7592H150.969C151.089 29.7592 151.205 29.807 151.29 29.8919C151.375 29.9768 151.423 30.092 151.423 30.2121V31.8221C151.423 31.9423 151.375 32.0575 151.29 32.1424C151.205 32.2273 151.089 32.275 150.969 32.275H143.205C143.084 32.275 142.969 32.2273 142.884 32.1424C142.799 32.0575 142.751 31.9423 142.751 31.8221V18.3035C142.751 18.1834 142.799 18.0682 142.884 17.9832C142.969 17.8983 143.084 17.8506 143.205 17.8506Z" fill="white"/>
</svg>
