<svg width="44" height="44" viewBox="0 0 44 44" fill="none" xmlns="http://www.w3.org/2000/svg">
<path d="M21.6455 43.0839C9.72437 43.0839 0.0292969 33.4221 0.0292969 21.542C0.0292969 9.66177 9.73902 0 21.6455 0C33.552 0 43.2617 9.66177 43.2617 21.542C43.2617 33.4221 33.5666 43.0839 21.6455 43.0839ZM21.6455 1.75138C10.6909 1.75138 1.78671 10.625 1.78671 21.542C1.78671 32.4589 10.6909 41.3325 21.6455 41.3325C32.6 41.3325 41.5043 32.4589 41.5043 21.542C41.5043 10.625 32.6 1.75138 21.6455 1.75138Z" fill="white"/>
<path d="M18.2476 30.065C18.2476 30.0212 18.2329 29.9774 18.2329 29.9336C18.2476 26.1974 18.2622 22.4611 18.2769 18.7102C18.2769 17.8199 18.2622 16.9296 18.2476 16.0539C18.2476 15.981 18.2476 15.8934 18.2476 15.8058C19.8292 15.8058 21.4109 15.8058 22.9926 15.8058C22.9926 16.4626 22.9926 17.134 22.9926 17.7907C22.9926 17.7907 23.0072 17.7907 23.0072 17.8053C23.0219 17.7761 23.0512 17.7615 23.0658 17.7324C23.388 17.2507 23.7688 16.8275 24.2228 16.4772C24.8232 16.0102 25.4969 15.7037 26.2584 15.5723C27.2397 15.3972 28.2209 15.441 29.1728 15.7621C30.5055 16.1999 31.4575 17.061 32.0725 18.3161C32.3362 18.8562 32.4972 19.4254 32.6144 20.0091C32.7169 20.5783 32.7609 21.1475 32.7609 21.7313C32.7609 24.4898 32.7609 27.2628 32.7609 30.0212C32.7609 30.0504 32.7609 30.0796 32.7609 30.1088C31.1792 30.1088 29.5975 30.1088 28.0305 30.1088C28.0305 30.065 28.0305 30.0212 28.0305 29.9774C28.0305 27.5109 28.0305 25.0444 28.0305 22.5778C28.0305 22.1838 28.0159 21.7897 27.9426 21.3957C27.884 21.0308 27.7815 20.6951 27.6058 20.3594C27.3275 19.8486 26.9175 19.4983 26.361 19.3524C26.0241 19.2648 25.6873 19.2502 25.3358 19.2794C24.8671 19.3232 24.4571 19.4691 24.091 19.761C23.7834 20.0091 23.5345 20.301 23.3441 20.6513C23.183 20.9286 23.0805 21.2059 23.0365 21.527C23.0072 21.7605 23.0072 21.994 23.0072 22.2422C23.0072 24.8254 23.0072 27.4233 23.0072 30.0066C23.0072 30.0504 23.0072 30.0942 22.9926 30.138C21.3963 30.065 19.8292 30.065 18.2476 30.065Z" fill="white"/>
<path d="M10.8374 30.0653C10.8374 30.0215 10.8374 29.9777 10.8374 29.9339C10.8374 25.2636 10.8374 20.5933 10.8374 15.9375C10.8374 15.8937 10.8374 15.8499 10.8374 15.8062C12.4191 15.8062 14.0008 15.8062 15.5825 15.8062C15.5825 15.8207 15.5971 15.8499 15.5971 15.8645C15.5971 15.8937 15.5971 15.9229 15.5971 15.9521C15.5971 20.6078 15.5971 25.2782 15.5971 29.9339C15.5971 29.9777 15.5971 30.0215 15.5971 30.0653C14.0154 30.0653 12.4337 30.0653 10.8374 30.0653Z" fill="white"/>
<path d="M13.4881 8.91743C13.576 8.93202 13.6639 8.94662 13.7371 8.94662C14.3083 9.01959 14.8062 9.23851 15.2163 9.64717C15.6117 10.0412 15.8314 10.5083 15.8899 11.0629C15.9339 11.4131 15.9192 11.7634 15.8167 12.0991C15.6263 12.7559 15.2163 13.2083 14.6158 13.5294C14.2936 13.7045 13.9568 13.7921 13.5906 13.8213C13.1952 13.8651 12.7998 13.8505 12.4044 13.7483C11.4524 13.5294 10.7641 12.7705 10.5884 11.9094C10.5737 11.8364 10.5737 11.778 10.5591 11.705C10.5444 11.6613 10.5298 11.6175 10.5298 11.5737C10.5298 11.4277 10.5298 11.2964 10.5298 11.1504C10.5444 11.1066 10.5591 11.0775 10.5591 11.0337C10.6176 10.5229 10.8373 10.0704 11.1888 9.69095C11.6135 9.25311 12.1407 9.01959 12.7412 8.93202C12.8291 8.91743 12.9169 8.90283 12.9902 8.90283C13.1806 8.91743 13.3417 8.91743 13.4881 8.91743Z" fill="white"/>
</svg>
