<svg width="160" height="51" viewBox="0 0 160 51" fill="none" xmlns="http://www.w3.org/2000/svg">
<path d="M38.2848 25.9276H22.6133C22.0706 25.9269 21.5497 26.1384 21.1648 26.5157C20.7799 26.8931 20.5623 27.4054 20.5597 27.9406V31.8602C20.5623 32.3954 20.7799 32.9078 21.1648 33.2851C21.5497 33.6624 22.0706 33.8739 22.6133 33.8732H29.324V40.2976C28.4863 40.9545 27.5292 41.4478 26.5041 41.7511C25.163 42.1944 23.3477 42.4197 21.1001 42.4197C17.983 42.4197 15.5758 41.3586 13.7458 39.1711C11.9158 36.9837 10.9824 34.084 10.9824 30.5448V20.3705C10.9824 16.8942 11.8814 14.0236 13.65 11.8361C15.4186 9.64865 17.6711 8.59488 20.5573 8.59488C23.2593 8.59488 25.3398 9.29498 26.7203 10.6806C27.5309 11.4946 28.3267 13.7329 28.9015 16.8215C29.1054 17.9092 29.9848 17.7494 31.0533 17.7494H37.3834C39.1028 17.7494 39.3165 17.6549 39.4442 17.2818L39.5056 17.0929V17.0032C39.4074 10.3197 36.784 6.52853 34.4971 4.47671C31.2032 1.52131 26.4206 0.0218048 20.2846 0.0218048C14.3623 0.0218048 9.44716 1.94281 5.67665 5.73154C1.90613 9.52026 0 14.4669 0 20.448V30.5642C0 36.5743 1.9872 41.533 5.89527 45.3072C9.80334 49.0814 14.9224 50.9927 21.0903 50.9927C25.9072 50.9927 29.9602 50.2224 33.1265 48.7059C35.6639 47.4947 37.7002 46.1188 39.1765 44.6193C39.8888 43.8925 40.3113 42.5432 40.3113 41.6493V27.9406C40.3088 27.41 40.0949 26.9016 39.7159 26.5251C39.3368 26.1485 38.8228 25.9339 38.2848 25.9276Z" fill="#FF7323"/>
<path d="M70.4507 4.41857e-07H51.5368C49.5605 -3.74757e-05 47.6644 0.771049 46.2626 2.1449C44.8607 3.51876 44.067 5.38378 44.0547 7.33278V17.7203H53.1113V11.1796C53.1113 10.3463 53.6591 10.0798 54.3395 10.5837L72.0769 20.8501C72.2326 20.9476 72.3608 21.0823 72.4497 21.2418C72.5385 21.4012 72.5851 21.5802 72.5851 21.7621C72.5851 21.9441 72.5385 22.1231 72.4497 22.2825C72.3608 22.4419 72.2326 22.5767 72.0769 22.6742L54.3395 34.3601C53.6615 34.864 53.1113 34.6024 53.1113 33.7642V25.9203H44.0547V43.6696C44.067 45.6184 44.8608 47.4832 46.2627 48.8567C47.6646 50.2301 49.5607 51.0007 51.5368 51H70.4507C72.427 51.0013 74.3235 50.231 75.7255 48.8574C77.1275 47.4838 77.9211 45.6186 77.9328 43.6696V7.33278C77.9211 5.38359 77.1276 3.51819 75.7256 2.1442C74.3237 0.770206 72.4273 -0.000673755 70.4507 4.41857e-07ZM67.8912 6.03434H54.256C53.4331 6.03434 52.76 5.62737 52.76 5.13077C52.76 4.63416 53.4331 4.22476 54.256 4.22476H67.8912C68.7141 4.22476 69.3871 4.63174 69.3871 5.13077C69.3871 5.62979 68.7141 6.03434 67.8912 6.03434ZM61.0724 47.6667C60.0977 47.6667 59.1628 47.2859 58.4722 46.6076C57.7816 45.9293 57.3917 45.0087 57.3878 44.0475C57.3911 43.0859 57.7807 42.1648 58.4713 41.486C59.162 40.8071 60.0973 40.426 61.0724 40.426C62.0474 40.426 62.9828 40.8071 63.6734 41.486C64.364 42.1648 64.7537 43.0859 64.7569 44.0475C64.753 45.0087 64.3631 45.9293 63.6725 46.6076C62.982 47.2859 62.047 47.6667 61.0724 47.6667Z" fill="#FF7323"/>
<path d="M98.8243 25.1887L99.1584 22.1267H99.0258L98.0653 24.5952L94.7345 30.3486H93.752L90.2443 24.5734L89.2617 22.1267H89.1512L89.5982 25.1669V32.708C89.5982 32.8365 89.5465 32.9598 89.4544 33.0506C89.3622 33.1415 89.2373 33.1925 89.107 33.1925H87.1837C87.0534 33.1925 86.9284 33.1415 86.8363 33.0506C86.7441 32.9598 86.6924 32.8365 86.6924 32.708V18.246C86.6924 18.1175 86.7441 17.9942 86.8363 17.9034C86.9284 17.8125 87.0534 17.7615 87.1837 17.7615H89.2052C89.291 17.762 89.3751 17.7846 89.4492 17.8271C89.5233 17.8696 89.5849 17.9305 89.6277 18.0037L93.666 24.8181L94.4029 26.5816H94.4938L95.1644 24.7745L98.9791 18.0134C99.0226 17.9391 99.0853 17.8775 99.1608 17.835C99.2363 17.7924 99.322 17.7704 99.409 17.7712H101.401C101.531 17.7712 101.656 17.8222 101.748 17.9131C101.841 18.0039 101.892 18.1272 101.892 18.2557V32.7177C101.892 32.8462 101.841 32.9694 101.748 33.0603C101.656 33.1512 101.531 33.2022 101.401 33.2022H99.3205C99.1902 33.2022 99.0653 33.1512 98.9731 33.0603C98.881 32.9694 98.8293 32.8462 98.8293 32.7177L98.8243 25.1887Z" fill="#FF7323"/>
<path d="M104.076 25.477C104.076 22.9043 104.649 20.9244 105.795 19.5371C106.942 18.1499 108.579 17.4554 110.708 17.4538C111.715 17.432 112.714 17.6272 113.636 18.0255C114.453 18.3951 115.166 18.9555 115.714 19.6583C116.29 20.4144 116.707 21.2756 116.942 22.1921C117.223 23.2648 117.358 24.3693 117.345 25.477C117.345 28.0464 116.772 30.0264 115.626 31.4169C114.479 32.8074 112.842 33.5018 110.713 33.5002C109.7 33.5236 108.693 33.3277 107.765 32.9261C106.949 32.5602 106.239 31.9999 105.697 31.2957C105.123 30.5387 104.706 29.6777 104.469 28.7619C104.193 27.6885 104.061 26.5842 104.076 25.477ZM107.296 25.477C107.291 26.1979 107.357 26.9177 107.495 27.6257C107.605 28.2204 107.813 28.7933 108.112 29.3214C108.366 29.7706 108.731 30.1496 109.173 30.4237C109.639 30.6972 110.173 30.8349 110.715 30.8209C111.21 30.8406 111.702 30.7355 112.143 30.5155C112.585 30.2955 112.963 29.9679 113.241 29.5637C113.837 28.7255 114.135 27.3665 114.135 25.4867C114.139 24.7839 114.075 24.0823 113.946 23.3913C113.838 22.799 113.637 22.2269 113.351 21.6955C113.106 21.2343 112.745 20.8431 112.302 20.5594C111.824 20.2761 111.273 20.1348 110.715 20.1524C110.217 20.1336 109.722 20.2424 109.279 20.4683C108.836 20.6941 108.46 21.0293 108.188 21.4412C107.593 22.2907 107.296 23.6359 107.296 25.477Z" fill="#FF7323"/>
<path d="M130.074 21.354C130.073 21.7403 130.025 22.1251 129.929 22.4998C129.836 22.8755 129.674 23.2311 129.45 23.5487C129.215 23.8763 128.922 24.1594 128.585 24.3845C128.194 24.6426 127.756 24.8259 127.296 24.9247V25.0579C127.733 25.1289 128.159 25.2551 128.563 25.4334C128.958 25.6033 129.313 25.8506 129.607 26.1601C129.915 26.4851 130.154 26.8672 130.31 27.2842C130.487 27.7869 130.57 28.3171 130.555 28.8491C130.574 29.5691 130.397 30.2809 130.042 30.9106C129.704 31.485 129.232 31.9722 128.667 32.3326C128.063 32.7115 127.398 32.9868 126.701 33.1465C125.963 33.3248 125.205 33.4142 124.444 33.413H123.462C123.066 33.413 122.641 33.413 122.187 33.3791C121.732 33.3451 121.27 33.3233 120.801 33.2797C120.369 33.241 119.94 33.1747 119.517 33.0811V17.8705C119.798 17.8269 120.126 17.7833 120.499 17.7397C120.863 17.6961 121.256 17.6597 121.673 17.6282C122.091 17.5968 122.518 17.5774 122.958 17.5628C123.398 17.5483 123.832 17.541 124.265 17.541C124.98 17.5403 125.693 17.5954 126.399 17.7058C127.045 17.8019 127.671 17.999 128.254 18.2896C128.786 18.5594 129.237 18.963 129.561 19.4596C129.916 20.0279 130.095 20.6866 130.074 21.354ZM123.525 24.2416C123.732 24.2416 123.975 24.2416 124.25 24.2198C124.479 24.2098 124.707 24.188 124.933 24.1543C125.474 23.9961 125.976 23.7289 126.407 23.3695C126.607 23.201 126.767 22.9899 126.873 22.752C126.98 22.5142 127.03 22.2557 127.021 21.9959C127.034 21.6692 126.957 21.3452 126.797 21.0584C126.653 20.8165 126.449 20.6141 126.205 20.4698C125.947 20.3198 125.663 20.2165 125.368 20.1646C125.044 20.1047 124.715 20.0747 124.385 20.0749C123.999 20.0749 123.648 20.0749 123.314 20.0992C123.059 20.1052 122.805 20.1263 122.553 20.1621V24.2416H123.525ZM124.493 30.8767C124.853 30.8775 125.211 30.8336 125.559 30.7459C125.885 30.6669 126.193 30.5298 126.468 30.3413C126.729 30.1625 126.947 29.9282 127.104 29.6557C127.273 29.3552 127.358 29.0157 127.35 28.6722C127.372 28.2744 127.272 27.8793 127.063 27.5385C126.877 27.2646 126.624 27.0426 126.326 26.8941C126.002 26.7372 125.653 26.6379 125.294 26.601C124.915 26.5575 124.533 26.5357 124.152 26.5356H122.55V30.7459C122.664 30.7828 122.782 30.8048 122.901 30.8113C123.061 30.8258 123.236 30.8379 123.417 30.8452L123.987 30.867C124.179 30.8742 124.346 30.8767 124.491 30.8767H124.493Z" fill="#FF7323"/>
<path d="M133.557 17.7615H135.635C135.766 17.7615 135.891 17.8125 135.983 17.9034C136.075 17.9942 136.127 18.1175 136.127 18.246V32.708C136.127 32.8365 136.075 32.9598 135.983 33.0506C135.891 33.1415 135.766 33.1925 135.635 33.1925H133.557C133.427 33.1925 133.302 33.1415 133.21 33.0506C133.118 32.9598 133.066 32.8365 133.066 32.708V18.246C133.066 18.1175 133.118 17.9942 133.21 17.9034C133.302 17.8125 133.427 17.7615 133.557 17.7615Z" fill="#FF7323"/>
<path d="M148.534 33.1925H139.615C139.485 33.1925 139.36 33.1415 139.267 33.0506C139.175 32.9598 139.124 32.8365 139.124 32.708V18.246C139.124 18.1175 139.175 17.9942 139.267 17.9034C139.36 17.8125 139.485 17.7615 139.615 17.7615H141.693C141.823 17.7615 141.948 17.8125 142.04 17.9034C142.132 17.9942 142.184 18.1175 142.184 18.246V30.5012H148.534C148.664 30.5012 148.789 30.5522 148.881 30.6431C148.973 30.7339 149.025 30.8572 149.025 30.9857V32.708C149.025 32.8365 148.973 32.9598 148.881 33.0506C148.789 33.1415 148.664 33.1925 148.534 33.1925Z" fill="#FF7323"/>
<path d="M151.103 17.7615H159.396C159.526 17.7615 159.651 17.8125 159.743 17.9034C159.835 17.9942 159.887 18.1175 159.887 18.246V19.9659C159.887 20.0944 159.835 20.2176 159.743 20.3085C159.651 20.3994 159.526 20.4504 159.396 20.4504H153.672V24.0429H158.831C158.961 24.0429 159.086 24.0939 159.178 24.1848C159.27 24.2757 159.322 24.3989 159.322 24.5274V26.2473C159.322 26.3758 159.27 26.4991 159.178 26.5899C159.086 26.6808 158.961 26.7318 158.831 26.7318H153.672V30.5012H159.509C159.639 30.5012 159.764 30.5522 159.856 30.6431C159.948 30.7339 160 30.8572 160 30.9857V32.708C160 32.8365 159.948 32.9598 159.856 33.0506C159.764 33.1415 159.639 33.1925 159.509 33.1925H151.103C150.973 33.1925 150.848 33.1415 150.756 33.0506C150.664 32.9598 150.612 32.8365 150.612 32.708V18.246C150.612 18.1175 150.664 17.9942 150.756 17.9034C150.848 17.8125 150.973 17.7615 151.103 17.7615Z" fill="#FF7323"/>
</svg>
